<?xml version="1.0" encoding="utf-8"?>
<!-- Generator: Adobe Illustrator 18.0.0, SVG Export Plug-In . SVG Version: 6.00 Build 0)  -->
<!DOCTYPE svg PUBLIC "-//W3C//DTD SVG 1.1//EN" "http://www.w3.org/Graphics/SVG/1.1/DTD/svg11.dtd">
<svg version="1.1" id="Layer_1" xmlns="http://www.w3.org/2000/svg" xmlns:xlink="http://www.w3.org/1999/xlink" x="0px" y="0px"
	 viewBox="0 0 11 11" enable-background="new 0 0 11 11" xml:space="preserve">
<path fill="#8C8C8C" d="M9.6,1.4c-0.8-0.8-1.8-1.2-3-1.2c-1.1,0-2.2,0.4-3,1.2c-0.8,0.8-1.2,1.8-1.2,3c0,0.9,0.3,1.8,0.9,2.6
	l-3.1,3.1l0.7,0.7l3.1-3.1c0.7,0.6,1.6,0.9,2.6,0.9c1.1,0,2.2-0.4,3-1.2c0.8-0.8,1.2-1.8,1.2-3C10.8,3.3,10.4,2.2,9.6,1.4z M8.9,6.6
	C7.8,7.7,6,7.8,4.8,6.9C4.6,6.8,4.5,6.7,4.4,6.6C4.3,6.5,4.2,6.4,4.1,6.2C3.7,5.7,3.4,5.1,3.4,4.4c0-0.8,0.3-1.6,0.9-2.2
	C5,1.5,5.8,1.2,6.6,1.2c0.8,0,1.6,0.3,2.2,0.9c0.6,0.6,0.9,1.4,0.9,2.3S9.5,6,8.9,6.6z"/>
</svg>
